# xmcd CD database file
#
# Track frame offsets:
#	150
#	6681
#	15732
#	20349
#	27654
#	35009
#	43844
#	53014
#	60307
#	67952
#	77708
#	86530
#	93213
#	103885
#	114427
#	125861
#	138244
#	142805
#
# Disc length: 2000 seconds
#
# Revision: 0
# Processed by: cddbd v1.5.2PL0 Copyright (c) Steve Scherf et al.
# Submitted via: CDex 1.70beta2
#
DISCID=f107ce12
DTITLE=Musical Munchkins - Musical Munchkins
DYEAR=1900
DGENRE=Jazz
TTITLE0=Welcome to my Music Class
TTITLE1=Wheels oh the Bus
TTITLE2=Hello, Fingers!
TTITLE3=5 Little Monkeys
TTITLE4=6 Little Ducks
TTITLE5=Hokey Pokey
TTITLE6=Mister Rabbit
TTITLE7=Who Has the Drum?
TTITLE8=The Bes Fly 1,2,3,4,5
TTITLE9=I Caught a Fish
TTITLE10=About 'Re' the Worm
TTITLE11=Itsy Bitsy Spider
TTITLE12=The Little Dustman (Lullaby)
TTITLE13=Tapping on my Knees
TTITLE14=Oh, what a Miracle!
TTITLE15=5 Little Ducks
TTITLE16=Let's Cleanup together
TTITLE17=It's Time to say Goodbye!
EXTD=
EXTT0=
EXTT1=
EXTT2=
EXTT3=
EXTT4=
EXTT5=
EXTT6=
EXTT7=
EXTT8=
EXTT9=
EXTT10=
EXTT11=
EXTT12=
EXTT13=
EXTT14=
EXTT15=
EXTT16=
EXTT17=
PLAYORDER=
